<svg xmlns="http://www.w3.org/2000/svg" width="512" height="512" viewBox="0 0 512 512"><circle cx="256" cy="256" r="256" fill="#7a2727"/><path d="M292.03,509.464c100.421-14.148,182.122-86.545,209.829-181.932L361.915,187.589l-49.355,3.839-60.049-60.049-24.093,18.889-3.16,4.31-42.277,40.093,74.993,74.993-144.2,61.549Z" fill="#521717"/><g transform="translate(113.694 125.694)"><path d="M0,60V240.633H47.956L102.306,60Z" transform="translate(0 -36.022)" fill="#ff7149"/><path d="M358.306,60H256l54.35,180.633h47.956Z" transform="translate(-153.694 -36.022)" fill="#ff2b59"/><rect width="12" height="11" transform="translate(17.306 48.306)" fill="#fff"/><rect width="12" height="13" transform="translate(17.306 71.306)" fill="#fff"/><rect width="12" height="12" transform="translate(17.306 96.306)" fill="#fff"/><rect width="12" height="11" transform="translate(17.306 120.306)" fill="#fff"/><rect width="12" height="11" transform="translate(175.306 48.306)" fill="#ffeac3"/><rect width="12" height="13" transform="translate(175.306 71.306)" fill="#ffeac3"/><rect width="12" height="12" transform="translate(175.306 96.306)" fill="#ffeac3"/><rect width="12" height="11" transform="translate(175.306 120.306)" fill="#ffeac3"/><rect width="12" height="11" transform="translate(17.306 144.306)" fill="#fff"/><rect width="12" height="11" transform="translate(175.306 144.306)" fill="#ffeac3"/><path d="M274.328,0h-54.35L196,102.306l54.35,102.306h23.978Z" transform="translate(-117.672)" fill="#ff7149"/><path d="M120,0V204.611h23.978l30.372-23.978V0Z" transform="translate(-72.044)" fill="#ff9441"/><path d="M268.361,60H237.989L226,77.784l11.989,17.784h30.372Z" transform="translate(-135.683 -36.022)" fill="#bfdcff"/><rect width="31" height="35" transform="translate(71.306 24.306)" fill="#fff"/><path d="M268.361,180H237.989L226,197.784l11.989,17.784h30.372Z" transform="translate(-135.683 -108.066)" fill="#bfdcff"/><rect width="31" height="37" transform="translate(71.306 71.306)" fill="#fff"/><path d="M268.361,328.972V299H237.989L226,340.961Z" transform="translate(-135.683 -179.51)" fill="#ffeac3"/><path d="M210.372,299H180v29.972l30.372,11.989Z" transform="translate(-108.066 -179.51)" fill="#fff"/><path d="M231.985,374,216,401.575l15.985,27.575h30.372V374Z" transform="translate(-129.68 -224.538)" fill="#09213d"/><rect width="31" height="55" transform="translate(71.306 149.306)" fill="#233952"/></g><path d="M378.613,304.5H363.1V223.948a32.517,32.517,0,1,0-65.034,0V304.5H282.549V223.948a48.032,48.032,0,1,1,96.064,0V304.5Z" fill="#fff"/><path d="M330.581,175.914c-.055,0-.11,0-.165,0v15.519c.055,0,.109-.009.165-.009A32.554,32.554,0,0,1,363.1,223.945V304.5h15.515V223.945A48.085,48.085,0,0,0,330.581,175.914Z" fill="#d0d1d3"/><path d="M387.348,372.031H273.813a12.19,12.19,0,0,1-12.19-12.19v-90.55a12.19,12.19,0,0,1,12.19-12.19H387.348a12.19,12.19,0,0,1,12.19,12.19v90.55A12.19,12.19,0,0,1,387.348,372.031Z" fill="#ffc61b"/><path d="M387.348,257.1H330.416V372.031h56.932a12.19,12.19,0,0,0,12.19-12.19v-90.55A12.19,12.19,0,0,0,387.348,257.1Z" fill="#eaa22f"/><path d="M346.958,304.178a16.377,16.377,0,1,0-24.565,14.169v18.337a8.189,8.189,0,1,0,16.378,0V318.347A16.364,16.364,0,0,0,346.958,304.178Z" fill="#eaa22f"/><path d="M330.581,287.8c-.055,0-.109.009-.165.009v57.047c.057,0,.109.017.165.017a8.19,8.19,0,0,0,8.189-8.189V318.348a16.369,16.369,0,0,0-8.189-30.547Z" fill="#ff5419"/></svg>