<svg xmlns="http://www.w3.org/2000/svg" width="512" height="512" viewBox="0 0 512 512"><g transform="translate(-4386 -2480)"><circle cx="256" cy="256" r="256" transform="translate(4386 2480)" fill="#8f00c4"/><path d="M282.8,483.647C374.523,466.5,451.4,403,480.516,314.837L345.854,172.247,300.8,186.912l-56.37-55.533-22.617,17.469-2.966,3.986-39.687,37.078,70.4,69.353-49.288,71.312-73.5.123Z" transform="translate(4403.353 2504.432)" fill="#540073"/><path d="M210.046,0H109.508V88.937H82.441l77.336,46.4,77.336-46.4H210.046Z" transform="translate(4482.361 2622)" fill="#008dff"/><path d="M213.147,112.813h-46.4v15.467h46.4V228.818H19.806V128.28h46.4V112.813h-46.4A15.468,15.468,0,0,0,4.339,128.28V236.551a15.468,15.468,0,0,0,15.467,15.467H213.147a15.468,15.468,0,0,0,15.467-15.467V128.28A15.468,15.468,0,0,0,213.147,112.813Z" transform="translate(4525.661 2559.456)" fill="#0c00b1"/><path d="M39.051,248.063H232.392V147.525h-46.4v23.2h27.068l-77.337,46.4-77.336-46.4H85.453v-23.2h-46.4Z" transform="translate(4506.417 2540.211)" fill="#ffddba"/><g transform="translate(4530 2811.474)"><path d="M4.339,477.288c0,12.815,10.386,15.467,23.2,15.467H205.414c12.815,0,23.2-2.653,23.2-15.467Z" transform="translate(-4.339 -454.087)" fill="#0c00b1"/><path d="M169.22,448.421h77.337l-11.6-23.2H180.821Z" transform="translate(-95.751 -425.22)" fill="#0c00b1"/></g><path d="M413.709,304.718h-9.667v-9.667h-3.867v9.667h-9.667v3.867h9.667v9.667h3.867v-9.667h9.667Z" transform="translate(4311.565 2458.421)" fill="#0c00b1"/><g transform="translate(4613.137 2811.474)" opacity="0.14"><path d="M246.984,425.22H192.848l-1.933,3.867h58Z" transform="translate(-190.915 -425.22)"/></g><g transform="translate(4564.802 2718.67)" opacity="0.14"><path d="M159.777,255.617,95.329,216.949H82.441l77.336,46.4,77.336-46.4H224.226Z" transform="translate(-82.441 -216.949)"/></g><g transform="translate(4601.999 2626.999)"><path d="M0,60v71.336H18.939L40.4,60Z" transform="translate(0 -50.531)" fill="#5448ff"/><path d="M296.4,60H256l21.464,71.336H296.4Z" transform="translate(-215.597 -50.531)" fill="#0c00b1"/><rect width="5" height="4" transform="translate(7.001 19.001)" fill="#fff"/><rect width="5" height="5" transform="translate(7.001 28.001)" fill="#fff"/><rect width="5" height="4" transform="translate(7.001 38.001)" fill="#fff"/><rect width="5" height="5" transform="translate(7.001 47.001)" fill="#fff"/><rect width="5" height="4" transform="translate(69.001 19.001)" fill="#ffeac3"/><rect width="5" height="5" transform="translate(69.001 28.001)" fill="#ffeac3"/><rect width="5" height="4" transform="translate(69.001 38.001)" fill="#ffeac3"/><rect width="5" height="5" transform="translate(69.001 47.001)" fill="#ffeac3"/><rect width="5" height="4" transform="translate(7.001 57.001)" fill="#fff"/><rect width="5" height="4" transform="translate(69.001 57.001)" fill="#ffeac3"/><path d="M226.933,0H205.469L196,40.4l21.464,40.4h9.469Z" transform="translate(-165.067)" fill="#8f00c4"/><path d="M120,0V80.805h9.469l11.995-9.469V0Z" transform="translate(-101.061)" fill="#cc41ff"/><path d="M242.729,60H230.735L226,67.023l4.735,7.023h11.995Z" transform="translate(-190.332 -50.998)" fill="#bfdcff"/><rect width="12" height="14" transform="translate(28.501 9.001)" fill="#fff"/><path d="M242.729,180H230.735L226,187.023l4.735,7.023h11.995Z" transform="translate(-190.332 -151.999)" fill="#bfdcff"/><rect width="12" height="14" transform="translate(28.501 28.001)" fill="#fff"/><path d="M242.729,310.837V299H230.735L226,315.571Z" transform="translate(-190.332 -251.811)" fill="#ffeac3"/><path d="M191.995,299H180v11.837l11.995,4.735Z" transform="translate(-151.592 -251.811)" fill="#fff"/><path d="M222.889,374,216,385.4l6.889,11.4h13.089V374Z" transform="translate(-183.581 -315.999)" fill="#09213d"/><rect width="12" height="22.8" transform="translate(28.401 58.001)" fill="#233952"/></g></g></svg>