<svg xmlns="http://www.w3.org/2000/svg" width="531.089" height="488" viewBox="0 0 531.089 488"><defs><style>.a{fill:#6ead00;}.b{fill:none;stroke:#6ead00;stroke-linecap:round;stroke-linejoin:round;stroke-width:25px;}</style></defs><g transform="translate(-637 -291.998)"><path class="a" d="M244,488A244.064,244.064,0,0,1,149.023,19.174,243.792,243.792,0,0,1,416.532,71.464a247.659,247.659,0,0,1,19.2,21.579h-30.2A221.98,221.98,0,0,0,244,22.808c-121.965,0-221.19,99.226-221.19,221.191S122.034,465.189,244,465.189,465.189,365.964,465.189,244a221.8,221.8,0,0,0-5.161-47.621H483.37A246.029,246.029,0,0,1,488,244,243.8,243.8,0,0,1,244,488Z" transform="translate(637.001 291.999)"/><path class="b" d="M6224.906,412.037,6380.922,593.62,6410,557.614l257.943-303.688" transform="translate(-5517.478 105.592)"/></g></svg>