<svg xmlns="http://www.w3.org/2000/svg" width="512.002" height="188.456" viewBox="0 0 512.002 188.456"><g transform="translate(-15247.914 -11180.362)"><path d="M15.932,8.629,13.5,3.143C18.214.04,25.632.08,28.962.483,37.283,1.49,46.124,15.8,32.551,24.922L37.409,28.3q9.632,1.024,15.734-3.492l-.166-22.5,15.79.222V8.462H59.824V62.617H52.206V31.805c-3.228,2.355-7.117,2.817-11.373,2.217,1.731,7.16-.042,18.868-16.452,18.953C11.156,51.554,4.514,41.8.861,28.258l5.521-2.993c4.067,13.665,10.4,20.25,18.44,21.5,9.882.332,12.366-9.976,8.281-14.3-2.215-2.949-8.146-4.644-13.471-3.879V22.163c6.809.089,11.966-1.768,13.139-6.384,2.537-9.986-7.29-11.071-16.839-7.149Z" transform="translate(15451.967 11249.157)" fill="#da251d" fill-rule="evenodd"/><path d="M50.265,114.469a7.681,7.681,0,0,1-5.7-2.335c-1.874-1.956-2.823-4.969-2.673-8.485a33.822,33.822,0,0,1,7.891-15.187A71.517,71.517,0,0,1,63.648,76.6q.11-1.386.22-2.771a18.944,18.944,0,0,1-4.225,2.6,10.422,10.422,0,0,1-4.091.9,8.822,8.822,0,0,1-4.39-1.2,15,15,0,0,1-4.189-3.747,25.421,25.421,0,0,1-5.536,3.762,11.952,11.952,0,0,1-5.116,1.281,8.995,8.995,0,0,1-4.677-1.323A14.779,14.779,0,0,1,27.43,72.06a32.227,32.227,0,0,1-6.772,4.02,15.78,15.78,0,0,1-6.044,1.34,11.116,11.116,0,0,1-3.633-.6,11.845,11.845,0,0,1-3.307-1.795,21.156,21.156,0,0,1-5.639-7.179A44.862,44.862,0,0,1,.228,58.477,64.208,64.208,0,0,1,.152,48.62,151.916,151.916,0,0,1,3.359,27.615,54.18,54.18,0,0,1,7.8,13.193c2.668-5.519,6.114-9.616,10.241-12.178A12.222,12.222,0,0,1,22.6,0a7.03,7.03,0,0,1,3.768,1.041,9.423,9.423,0,0,1,3.053,3.3,24.5,24.5,0,0,1,1.265,6.145,42.509,42.509,0,0,1-.036,7.559,50.486,50.486,0,0,1-1.424,8.189,45.315,45.315,0,0,1-2.9,8.034,108.566,108.566,0,0,1-6.68,14.354c-1.319,2.347-2.735,4.629-4.208,6.78-1.533,2.238-3.182,4.413-4.9,6.463a1.222,1.222,0,0,1,.077.31l0,.008c.828,4.057,2.557,6.115,5.139,6.115.064,0,.128,0,.192,0,4.652-.185,8.033-2.012,10.047-5.431q.724-3.748,1.448-7.5l.134-.695.65-3.366q.65-3.366,1.3-6.732a7.484,7.484,0,0,1,1.839-4.284,4.982,4.982,0,0,1,3.67-1.368h.123c1.832.064,3.009.466,3.7,1.265a4,4,0,0,1,.713,3.168q-1.768,8.978-3.534,17.956c-.258,2.581-.551,5.506,1.767,7.315.148.01.3.014.455.014,2.578,0,4.9-1.461,6.721-4.226a25.063,25.063,0,0,1,.209-4.483,22.922,22.922,0,0,1,1.061-4.383,23.865,23.865,0,0,1,2-4.273,28.283,28.283,0,0,1,3.026-4.152,21.849,21.849,0,0,1,6.862-5.7,17.6,17.6,0,0,1,8.064-1.9c.539,0,1.09.022,1.637.066,1.4.416,1.807,1.409,2.1,3.214l1.989-.114.5-.029,1.373-.079a3.271,3.271,0,0,1,2.736,1.085,3.131,3.131,0,0,1,.542,1.836,9.134,9.134,0,0,1-.407,2.619l-.9,6.033q-1.093,7.291-2.187,14.583c1.476-1.13,3.029-2.149,4.531-3.134s3.052-2,4.523-3.128a30,30,0,0,1,1.712-7.619,24.36,24.36,0,0,1,4.361-7.4,26.33,26.33,0,0,1,6.195-5.226,13.84,13.84,0,0,1,6.841-2.257,5.9,5.9,0,0,1,3.637,1.137,2.554,2.554,0,0,1,.711,1.545c.09.422.161.755.352.755a.284.284,0,0,0,.151-.055,8.243,8.243,0,0,1,2.855-.556,6.02,6.02,0,0,1,2,.335,3.266,3.266,0,0,1,2.08,3.234,16.721,16.721,0,0,1-1.2,6.187L110.8,60.976l-.773,4.212a4.468,4.468,0,0,0,.628,3.569,2.374,2.374,0,0,0,1.887.768,5.729,5.729,0,0,0,1.681-.292c2.406-.752,3.705-2.561,4.962-4.311.238-.332.507-.707.78-1.065q1.435-8.867,2.871-17.734a6.567,6.567,0,0,1,2.261-3.859,7.2,7.2,0,0,1,4.033-1.239c.139-.008.274-.013.4-.013a2.439,2.439,0,0,1,2.061.769,3.33,3.33,0,0,1,.456,2.29,21.584,21.584,0,0,1-.713,3.742c-1.336,3.31-1.61,6.958-1.875,10.486-.032.426-.072.957-.112,1.457L131.5,55.1l.289-.626,1.864-4.029a18.1,18.1,0,0,1,3.337-4.842,14.24,14.24,0,0,1,5.055-3.471,11.259,11.259,0,0,1,4.027-.861,5.77,5.77,0,0,1,1.973.319,4.029,4.029,0,0,1,1.512.956,5.394,5.394,0,0,1,1.323,4.019,36.311,36.311,0,0,1-.73,5.844v0c-.172.952-.35,1.936-.485,2.908A3.439,3.439,0,0,0,150.286,58a2.174,2.174,0,0,0,1.666.67,5.775,5.775,0,0,0,3.343-1.356,136.361,136.361,0,0,1,.516-13.65,96.857,96.857,0,0,1,2.079-13.061c1.721-7.436,3.609-13.033,5.772-17.113a20.005,20.005,0,0,1,4.382-5.85,9.811,9.811,0,0,1,2.652-1.659,7.865,7.865,0,0,1,2.991-.59,8.491,8.491,0,0,1,.932.052A7.965,7.965,0,0,1,180.663,8.9a12.289,12.289,0,0,1,1.809,6.589,28.833,28.833,0,0,1-1.229,8.576A58.683,58.683,0,0,1,174.068,38.7a126.573,126.573,0,0,1-10.492,13.52q-.111,4.046-.221,8.091c1.377-4.22,3.47-7.216,5.687-10.388l0,0,.058-.083.27-.387A23.315,23.315,0,0,1,174.314,44a7.9,7.9,0,0,1,4.775-1.755h.056c2.416.02,3.955.542,4.844,1.643a4.36,4.36,0,0,1,.879,2.406A12.7,12.7,0,0,1,184.556,50l-.106.855v0c-.975,7.861-1.984,15.989-1.881,24.19a7.252,7.252,0,0,1-1.949,2.449,4.487,4.487,0,0,1-2.815.929,6.634,6.634,0,0,1-1.419-.164,4.081,4.081,0,0,1-2.705-1.94,6.753,6.753,0,0,1-.718-3.491l.511-5.386.04-.42.522-5.5.087-.914.386-4.068c.135-1.2.06-1.976-.223-2.293a.5.5,0,0,0-.384-.17c-.469,0-1.193.53-2.154,1.576a31.808,31.808,0,0,0-5.079,9.976,67.506,67.506,0,0,1-1.833,8.489c-.664,2.12-1.365,3.3-2.142,3.591a7.188,7.188,0,0,1-2.546.516,4.412,4.412,0,0,1-3.085-1.181,7.669,7.669,0,0,1-2.023-4.306,38.185,38.185,0,0,1-.518-6.112,1,1,0,0,0-.182-.761.578.578,0,0,0-.444-.162,3.587,3.587,0,0,0-1.251.369,12.149,12.149,0,0,1-4.462.964,7.627,7.627,0,0,1-2.861-.536,7.9,7.9,0,0,1-2.394-1.536,7.338,7.338,0,0,1-2.47-5.476,16.686,16.686,0,0,1,1.09-5.607,1.928,1.928,0,0,0-1.115-.375c-1.573,0-3.386,2.1-5.39,6.228a95.208,95.208,0,0,0-3.867,9.728c-.27.772-.484,1.38-.616,1.708a11.409,11.409,0,0,1-1.365,4.651,4.16,4.16,0,0,1-3.272,2.11c-.246.023-.489.034-.721.034a4.129,4.129,0,0,1-3.409-1.442,6.341,6.341,0,0,1-1.171-3.47,17.235,17.235,0,0,1-4.066,3.577,10.5,10.5,0,0,1-2.388,1.075,9.209,9.209,0,0,1-2.662.393,9.759,9.759,0,0,1-1.043-.057,9.306,9.306,0,0,1-2.775-.717,7.58,7.58,0,0,1-2.054-1.342,9.8,9.8,0,0,1-2.459-3.815,17.393,17.393,0,0,1-5.063,4.335,11.809,11.809,0,0,1-5.657,1.445c-.214,0-.433-.006-.652-.017a15.039,15.039,0,0,1-3.253-1.216A10.8,10.8,0,0,1,86.117,75,10.493,10.493,0,0,1,83.3,70.287l-8.184,5.529-3.3,2.229c-1.526,7.665-3.239,15.695-5.9,22.226a32.446,32.446,0,0,1-4.812,8.477,17.855,17.855,0,0,1-3.129,3.011,14.011,14.011,0,0,1-3.711,1.976A12.2,12.2,0,0,1,50.265,114.469ZM61.109,86.625h0a36.279,36.279,0,0,0-7.972,8.126c-2.4,3.35-3.783,6.506-3.786,8.659a3.053,3.053,0,0,0,1.212,2.668,2,2,0,0,0,1.173.392c1.721,0,3.78-2.314,5.651-6.347a46.456,46.456,0,0,0,3.722-13.5ZM103.48,47.986h0a9.094,9.094,0,0,0-7.342,3.661c-1.951,2.429-3.438,6.124-4.419,10.982-.663,4.29.265,6.864,2.76,7.648a4.421,4.421,0,0,0,1.322.213h0c2.459,0,4.484-2.4,5.416-6.42L104,48c-.172-.008-.348-.013-.523-.013ZM67.375,47.21h0a9.539,9.539,0,0,0-7.5,3.661C57.818,53.3,56.171,57,54.98,61.852c-.85,4.291-.034,6.864,2.428,7.648a4.341,4.341,0,0,0,1.317.214c2.459,0,4.588-2.4,5.695-6.42L67.9,47.223c-.171-.008-.347-.013-.522-.013ZM20.986,8.439c-.978,0-2,.914-2.611,2.328a103.532,103.532,0,0,0-8.061,39.458c8.45-12.132,12.676-24.6,12.919-38.129a5.959,5.959,0,0,0-.813-2.8A1.731,1.731,0,0,0,20.986,8.439Zm151.779,4.716c-2.2,0-4.236,7.06-5.559,12.981a128.933,128.933,0,0,0-2.526,15.221.552.552,0,0,0,.159.022c.733,0,1.942-1.289,3.4-3.627a56.837,56.837,0,0,0,5.446-11.979,31.726,31.726,0,0,0,1.4-6.183,8.756,8.756,0,0,0-.471-4.611C174.028,13.769,173.405,13.155,172.765,13.155Z" transform="translate(15523.117 11235.171)" fill="#da251d"/><ellipse cx="6.984" cy="5.959" rx="6.984" ry="5.959" transform="translate(15554.753 11257.352)" fill="#da251d"/><path d="M68.8,135.459h0l-3.442-4.136-.383-.46-3.055-3.67c3.18-1.185,5-2.98,5.733-5.651a40.232,40.232,0,0,0,2.607-16.01c-.087-3.921-.309-8.153-.524-12.245l-.017-.322c-.1-1.93-.206-3.922-.293-5.85l-4.295,5.6-2.742,3.574-.1.13L57.545,102.6a41.745,41.745,0,0,1-2.085,11.51c-.586,1.119-1.285,1.686-2.077,1.686a3.392,3.392,0,0,1-2.2-1.163,22.424,22.424,0,0,1-3.753-5.965,9.591,9.591,0,0,1,0-8.058l.983-1.382.024-.034q1.32-1.857,2.642-3.711l-.011-.605-.01-.549q-.3-16.743-.605-33.483l-21.163-.627q.051,4.342.1,8.685l1.908-1.693.009-.008,1.238-1.1L33.88,64.93a4.734,4.734,0,0,1,3.2-1.642,3.923,3.923,0,0,1,2.738,1.328c3.112,3.353,6.012,6.741,7.3,11.3a26.453,26.453,0,0,1,.533,10.191,46.475,46.475,0,0,1-2.305,9.8,70.826,70.826,0,0,1-3.922,9.354,22.186,22.186,0,0,1-6.19,7.808L31.587,108.3l-.072-.093-2.847-3.719a25.118,25.118,0,0,0,7.61-10.047,84.178,84.178,0,0,0,4.066-13.185,19.34,19.34,0,0,0,.417-5.441c-.049-.745-.368-1.122-.947-1.122a2.417,2.417,0,0,0-.826.18c-5,4.771-8.1,9.631-9.486,14.859-1.441,5.451-1.805,11.4-1.147,18.732.4,5.825,2.042,10.3,5.157,14.07a15.3,15.3,0,0,1-4.823-3.61,19.629,19.629,0,0,1-3.361-5.389,15.493,15.493,0,0,1-2.647.256,5.244,5.244,0,0,1-4.229-1.562c-1.284-1.534-2.649-3.043-3.968-4.5l-.011-.012c-1.13-1.249-2.3-2.541-3.422-3.856a25.319,25.319,0,0,1-4.734-8.049,20.336,20.336,0,0,1-1.1-8.59A47.336,47.336,0,0,1,9.7,71.418a18.277,18.277,0,0,1,3.7-5.132A3.507,3.507,0,0,1,15.815,65.1a2.424,2.424,0,0,1,1.643.659,18.286,18.286,0,0,1,2.989,3.817l.011.017c.416.642.886,1.369,1.378,2.027q.044-1.351.088-2.7.046-1.4.091-2.8v-.009l.186-5.688-16.05-.52-3.137-4.7-1.256-1.88L0,50.7l38.838.96,22.011.545,1.142.028,1.5.038c-2.775-3.754-4.8-6.691-6.568-9.522a26.734,26.734,0,0,1-4.4-16.445c.436-5.531,2.794-11.123,7.011-16.622A24.483,24.483,0,0,1,77.665.051C78.121.017,78.582,0,79.034,0A17.115,17.115,0,0,1,92.347,6.465a25.136,25.136,0,0,1,5.542,13.364,16.588,16.588,0,0,1-2.648,11.529,18.547,18.547,0,0,1-9.34,6.574,18.971,18.971,0,0,1-6.223,1.237,9.147,9.147,0,0,1-7.044-3.092,36.225,36.225,0,0,1-4.868-7.554l0-.009a26.683,26.683,0,0,0,7.588,1.229,15.934,15.934,0,0,0,8.466-2.276c3.669-2.252,8.274-6.347,9.178-10.478a5.36,5.36,0,0,0-.734-4.278A7.85,7.85,0,0,0,85.28,9.3c-3.632,0-8.15,1.583-12.723,4.458-4.7,2.97-8.78,8.181-11.181,14.3-2.185,5.565-2.694,11.194-1.328,14.689,1.585,2.265,4.895,4.591,9.08,6.381a39.229,39.229,0,0,0,13.486,3.136c.106,0,2.975,0,7.729,0h40.533c-.716,3.407-.064,5.871,2.494,9.418H82.148a28.363,28.363,0,0,1-1.564,8.266,23.8,23.8,0,0,1-4.483,7.64c-.038,2.752-.115,5.174-.189,7.517v.024c-.2,6.192-.382,12.04.191,22.6a56.491,56.491,0,0,1-1.59,18.066c-1.305,4.585-3.278,7.927-5.706,9.664ZM20,76.126a2.177,2.177,0,0,0-1.856,1.466C15.05,84.692,12.132,91.4,12.2,100.3a8.533,8.533,0,0,0,1.591,3.455,3.309,3.309,0,0,0,2.591,1.225,5.851,5.851,0,0,0,2.386-.6c1.635-9.6,2.757-17.654,2.919-25.742a2.746,2.746,0,0,0-.616-2.04A1.48,1.48,0,0,0,20,76.126ZM58.171,61.163l-.522,23.7c.1-.111,10.46-11.634,12.2-15.226a24.3,24.3,0,0,0,1.98-8.162Z" transform="translate(15311.461 11197.871)" fill="#da251d"/><path d="M24.591,53.487h0a23.412,23.412,0,0,1-8.5-1.588A26.109,26.109,0,0,1,8.067,46.88C3.013,42.324.229,36.859.014,31.075a20.463,20.463,0,0,1,1.355-8.036,24.981,24.981,0,0,1,4.4-7.343A27.821,27.821,0,0,1,15.888,8.1,30.5,30.5,0,0,1,28.118,5.7c1.142,0,2.322.054,3.509.16q-.156-1.465-.312-2.93T31,0H42.052l-.1,13.6c-.364.383-.734.732-1.091,1.07s-.732.691-1.1,1.076a12.634,12.634,0,0,1,5.629,4.866,21.222,21.222,0,0,1,3.646,13.721,17.383,17.383,0,0,1-6.252,12.23,32.516,32.516,0,0,1-8.725,5.1A26.276,26.276,0,0,1,24.591,53.487ZM26.831,11.3h0c-5.662,1.1-10.471,4.456-14.7,10.255-4.357,6.735-4.778,13.354-1.25,19.673,3.109,4.112,6.731,6.2,10.765,6.2,2.976,0,6.264-1.134,9.772-3.372,5.523-3.585,8.354-8.685,8.653-15.592C40.153,23.532,38,20.041,33.5,17.79a13.353,13.353,0,0,0-6.672,4.5,13.018,13.018,0,0,1-1.648.117c-2.13,0-3.224-.743-3.253-2.21-.517-2.175.547-4.082,2.92-5.233a18.971,18.971,0,0,1,7.193-1.569A8.688,8.688,0,0,0,26.831,11.3Z" transform="translate(15392.424 11256.835)" fill="#da251d"/><rect width="512.002" height="188.456" transform="translate(15247.914 11180.362)" fill="none"/></g></svg>