<svg xmlns="http://www.w3.org/2000/svg" width="512" height="512" viewBox="0 0 512 512"><g transform="translate(-3846 -1930)"><circle cx="256" cy="256" r="256" transform="translate(3846 1930)" fill="#ffd757"/><path d="M282.8,483.647C374.523,466.5,451.4,403,480.516,314.837L345.854,172.247,300.8,186.912l-56.37-55.533-22.617,17.469-2.966,3.986-39.687,37.078,70.4,69.353-49.288,71.312-73.5.123Z" transform="translate(3863.353 1954.432)" fill="#e5bd51"/><g transform="translate(3985.661 2072)"><path d="M210.229,0H109.547V89.065H82.441l77.447,46.469,77.447-46.469H210.229Z" transform="translate(-43.25)" fill="#f2ba79"/><path d="M213.447,112.813H166.979V128.3h46.469V228.985H19.829V128.3H66.3v-15.49H19.829A15.49,15.49,0,0,0,4.339,128.3V236.729a15.49,15.49,0,0,0,15.49,15.49H213.447a15.49,15.49,0,0,0,15.49-15.49V128.3A15.49,15.49,0,0,0,213.447,112.813Z" transform="translate(0 -62.472)" fill="#e7a04e"/><path d="M39.051,248.207H232.67V147.525H186.2v23.234h27.107L135.86,217.228,58.413,170.759H85.52V147.525H39.051Z" transform="translate(-19.222 -81.695)" fill="#ffddba"/><g transform="translate(4.339 189.746)"><path d="M4.339,477.288c0,12.833,10.4,15.49,23.234,15.49H205.7c12.833,0,23.234-2.656,23.234-15.49Z" transform="translate(-4.339 -454.054)" fill="#e7a04e"/><path d="M169.22,448.454h77.448L235.051,425.22H180.837Z" transform="translate(-95.645 -425.22)" fill="#e7a04e"/></g><path d="M250.4,72.363,231.039,60.746c-3.872,11.617-27.107,11.617-27.107,11.617,0,12.833,15.021,23.234,23.234,23.234S250.4,85.2,250.4,72.363Z" transform="translate(-110.528 -33.639)" fill="#ffddba"/><path d="M231.039,41.524,250.4,53.141c0-12.833-3.872-27.107-23.234-27.107s-23.234,14.274-23.234,27.107C203.932,53.141,227.166,53.141,231.039,41.524Z" transform="translate(-110.528 -14.417)" fill="#854f09"/><g transform="translate(85.659 61.958)"><path d="M186.576,169.826v-15.49a15.49,15.49,0,0,1,15.49-15.49h30.979a15.49,15.49,0,0,1,15.49,15.49v15.49Z" transform="translate(-186.576 -138.847)" fill="#ffd757"/><path d="M413.742,304.732h-9.681v-9.681h-3.872v9.681h-9.681V308.6h9.681v9.681h3.872V308.6h9.681Z" transform="translate(-299.507 -225.348)" fill="#e7a04e"/></g><g transform="translate(87.595 189.746)" opacity="0.14"><path d="M247.065,425.22H192.851l-1.936,3.872H249Z" transform="translate(-190.915 -425.22)"/></g><g transform="translate(39.191 96.809)" opacity="0.14"><path d="M159.888,255.673,95.347,216.949H82.441l77.447,46.469,77.447-46.469H224.429Z" transform="translate(-82.441 -216.949)"/></g></g></g></svg>